<svg width="242" height="55" viewBox="0 0 242 55" fill="none" xmlns="http://www.w3.org/2000/svg">
<circle cx="27.5" cy="27.5" r="27.5" fill="#F2F2F2"/>
<path d="M49.9514 14.176L40.5914 40H33.3914L27.5834 23.968L21.5834 40H14.3834L5.07144 14.176H12.1274L18.2234 31.648L24.5594 14.176H30.8954L37.0394 31.648L43.3274 14.176H49.9514Z" fill="#717171"/>
<path d="M70.744 40.384C68.024 40.384 65.576 39.824 63.4 38.704C61.256 37.552 59.576 35.968 58.36 33.952C57.144 31.936 56.536 29.648 56.536 27.088C56.536 24.528 57.144 22.24 58.36 20.224C59.576 18.208 61.256 16.64 63.4 15.52C65.576 14.368 68.024 13.792 70.744 13.792C73.464 13.792 75.896 14.368 78.04 15.52C80.184 16.64 81.864 18.208 83.08 20.224C84.296 22.24 84.904 24.528 84.904 27.088C84.904 29.648 84.296 31.936 83.08 33.952C81.864 35.968 80.184 37.552 78.04 38.704C75.896 39.824 73.464 40.384 70.744 40.384ZM70.744 34.24C72.664 34.24 74.232 33.6 75.448 32.32C76.696 31.008 77.32 29.264 77.32 27.088C77.32 24.912 76.696 23.184 75.448 21.904C74.232 20.592 72.664 19.936 70.744 19.936C68.824 19.936 67.24 20.592 65.992 21.904C64.744 23.184 64.12 24.912 64.12 27.088C64.12 29.264 64.744 31.008 65.992 32.32C67.24 33.6 68.824 34.24 70.744 34.24ZM97.0611 17.584C97.9571 16.336 99.1571 15.392 100.661 14.752C102.197 14.112 103.957 13.792 105.941 13.792V20.704C105.109 20.64 104.549 20.608 104.261 20.608C102.117 20.608 100.437 21.216 99.2211 22.432C98.0051 23.616 97.3971 25.408 97.3971 27.808V40H89.9091V14.176H97.0611V17.584ZM121.482 29.872L117.882 33.424V40H110.394V4.384H117.882V24.544L128.826 14.176H137.754L127.002 25.12L138.714 40H129.642L121.482 29.872ZM173.425 6.4V40H165.649V26.224H150.385V40H142.609V6.4H150.385V19.648H165.649V6.4H173.425ZM206.863 14.176V40H199.759V36.928C198.767 38.048 197.583 38.912 196.207 39.52C194.831 40.096 193.343 40.384 191.743 40.384C188.351 40.384 185.663 39.408 183.679 37.456C181.695 35.504 180.703 32.608 180.703 28.768V14.176H188.191V27.664C188.191 31.824 189.935 33.904 193.423 33.904C195.215 33.904 196.655 33.328 197.743 32.176C198.831 30.992 199.375 29.248 199.375 26.944V14.176H206.863ZM229.064 13.792C231.464 13.792 233.64 14.352 235.592 15.472C237.576 16.56 239.128 18.112 240.248 20.128C241.368 22.112 241.928 24.432 241.928 27.088C241.928 29.744 241.368 32.08 240.248 34.096C239.128 36.08 237.576 37.632 235.592 38.752C233.64 39.84 231.464 40.384 229.064 40.384C225.512 40.384 222.808 39.264 220.952 37.024V40H213.8V4.384H221.288V16.912C223.176 14.832 225.768 13.792 229.064 13.792ZM227.768 34.24C229.688 34.24 231.256 33.6 232.472 32.32C233.72 31.008 234.344 29.264 234.344 27.088C234.344 24.912 233.72 23.184 232.472 21.904C231.256 20.592 229.688 19.936 227.768 19.936C225.848 19.936 224.264 20.592 223.016 21.904C221.8 23.184 221.192 24.912 221.192 27.088C221.192 29.264 221.8 31.008 223.016 32.32C224.264 33.6 225.848 34.24 227.768 34.24Z" fill="#F2F2F2"/>
</svg>
