<svg width="243" height="57" viewBox="0 0 243 57" fill="none" xmlns="http://www.w3.org/2000/svg">
<circle cx="28.5" cy="28.5" r="28.5" fill="#717171"/>
<path d="M50.9514 15.176L41.5914 41H34.3914L28.5834 24.968L22.5834 41H15.3834L6.07144 15.176H13.1274L19.2234 32.648L25.5594 15.176H31.8954L38.0394 32.648L44.3274 15.176H50.9514Z" fill="#F2F2F2"/>
<path d="M71.744 41.384C69.024 41.384 66.576 40.824 64.4 39.704C62.256 38.552 60.576 36.968 59.36 34.952C58.144 32.936 57.536 30.648 57.536 28.088C57.536 25.528 58.144 23.24 59.36 21.224C60.576 19.208 62.256 17.64 64.4 16.52C66.576 15.368 69.024 14.792 71.744 14.792C74.464 14.792 76.896 15.368 79.04 16.52C81.184 17.64 82.864 19.208 84.08 21.224C85.296 23.24 85.904 25.528 85.904 28.088C85.904 30.648 85.296 32.936 84.08 34.952C82.864 36.968 81.184 38.552 79.04 39.704C76.896 40.824 74.464 41.384 71.744 41.384ZM71.744 35.24C73.664 35.24 75.232 34.6 76.448 33.32C77.696 32.008 78.32 30.264 78.32 28.088C78.32 25.912 77.696 24.184 76.448 22.904C75.232 21.592 73.664 20.936 71.744 20.936C69.824 20.936 68.24 21.592 66.992 22.904C65.744 24.184 65.12 25.912 65.12 28.088C65.12 30.264 65.744 32.008 66.992 33.32C68.24 34.6 69.824 35.24 71.744 35.24ZM98.0611 18.584C98.9571 17.336 100.157 16.392 101.661 15.752C103.197 15.112 104.957 14.792 106.941 14.792V21.704C106.109 21.64 105.549 21.608 105.261 21.608C103.117 21.608 101.437 22.216 100.221 23.432C99.0051 24.616 98.3971 26.408 98.3971 28.808V41H90.9091V15.176H98.0611V18.584ZM122.482 30.872L118.882 34.424V41H111.394V5.384H118.882V25.544L129.826 15.176H138.754L128.002 26.12L139.714 41H130.642L122.482 30.872ZM174.425 7.4V41H166.649V27.224H151.385V41H143.609V7.4H151.385V20.648H166.649V7.4H174.425ZM207.863 15.176V41H200.759V37.928C199.767 39.048 198.583 39.912 197.207 40.52C195.831 41.096 194.343 41.384 192.743 41.384C189.351 41.384 186.663 40.408 184.679 38.456C182.695 36.504 181.703 33.608 181.703 29.768V15.176H189.191V28.664C189.191 32.824 190.935 34.904 194.423 34.904C196.215 34.904 197.655 34.328 198.743 33.176C199.831 31.992 200.375 30.248 200.375 27.944V15.176H207.863ZM230.064 14.792C232.464 14.792 234.64 15.352 236.592 16.472C238.576 17.56 240.128 19.112 241.248 21.128C242.368 23.112 242.928 25.432 242.928 28.088C242.928 30.744 242.368 33.08 241.248 35.096C240.128 37.08 238.576 38.632 236.592 39.752C234.64 40.84 232.464 41.384 230.064 41.384C226.512 41.384 223.808 40.264 221.952 38.024V41H214.8V5.384H222.288V17.912C224.176 15.832 226.768 14.792 230.064 14.792ZM228.768 35.24C230.688 35.24 232.256 34.6 233.472 33.32C234.72 32.008 235.344 30.264 235.344 28.088C235.344 25.912 234.72 24.184 233.472 22.904C232.256 21.592 230.688 20.936 228.768 20.936C226.848 20.936 225.264 21.592 224.016 22.904C222.8 24.184 222.192 25.912 222.192 28.088C222.192 30.264 222.8 32.008 224.016 33.32C225.264 34.6 226.848 35.24 228.768 35.24Z" fill="#717171"/>
</svg>


