<svg width="242" height="59" viewBox="0 0 242 59" fill="none" xmlns="http://www.w3.org/2000/svg">
<path d="M54.768 13.4L43.776 47H35.424L28.032 24.248L20.4 47H12.096L1.056 13.4H9.12L16.704 37.016L24.624 13.4H31.824L39.504 37.208L47.328 13.4H54.768ZM68.9471 47.384C66.2271 47.384 63.7791 46.824 61.6031 45.704C59.4591 44.552 57.7791 42.968 56.5631 40.952C55.3471 38.936 54.7391 36.648 54.7391 34.088C54.7391 31.528 55.3471 29.24 56.5631 27.224C57.7791 25.208 59.4591 23.64 61.6031 22.52C63.7791 21.368 66.2271 20.792 68.9471 20.792C71.6671 20.792 74.0991 21.368 76.2431 22.52C78.3871 23.64 80.0671 25.208 81.2831 27.224C82.4991 29.24 83.1071 31.528 83.1071 34.088C83.1071 36.648 82.4991 38.936 81.2831 40.952C80.0671 42.968 78.3871 44.552 76.2431 45.704C74.0991 46.824 71.6671 47.384 68.9471 47.384ZM68.9471 41.24C70.8671 41.24 72.4351 40.6 73.6511 39.32C74.8991 38.008 75.5231 36.264 75.5231 34.088C75.5231 31.912 74.8991 30.184 73.6511 28.904C72.4351 27.592 70.8671 26.936 68.9471 26.936C67.0271 26.936 65.4431 27.592 64.1951 28.904C62.9471 30.184 62.3231 31.912 62.3231 34.088C62.3231 36.264 62.9471 38.008 64.1951 39.32C65.4431 40.6 67.0271 41.24 68.9471 41.24ZM95.2643 24.584C96.1603 23.336 97.3603 22.392 98.8643 21.752C100.4 21.112 102.16 20.792 104.144 20.792V27.704C103.312 27.64 102.752 27.608 102.464 27.608C100.32 27.608 98.6403 28.216 97.4243 29.432C96.2083 30.616 95.6003 32.408 95.6003 34.808V47H88.1123V21.176H95.2643V24.584ZM119.685 36.872L116.085 40.424V47H108.597V11.384H116.085V31.544L127.029 21.176H135.957L125.205 32.12L136.917 47H127.845L119.685 36.872ZM171.628 13.4V47H163.852V33.224H148.588V47H140.812V13.4H148.588V26.648H163.852V13.4H171.628ZM205.066 21.176V47H197.962V43.928C196.97 45.048 195.786 45.912 194.41 46.52C193.034 47.096 191.546 47.384 189.946 47.384C186.554 47.384 183.866 46.408 181.882 44.456C179.898 42.504 178.906 39.608 178.906 35.768V21.176H186.394V34.664C186.394 38.824 188.138 40.904 191.626 40.904C193.418 40.904 194.858 40.328 195.946 39.176C197.034 37.992 197.578 36.248 197.578 33.944V21.176H205.066ZM227.267 20.792C229.667 20.792 231.843 21.352 233.795 22.472C235.779 23.56 237.331 25.112 238.451 27.128C239.571 29.112 240.131 31.432 240.131 34.088C240.131 36.744 239.571 39.08 238.451 41.096C237.331 43.08 235.779 44.632 233.795 45.752C231.843 46.84 229.667 47.384 227.267 47.384C223.715 47.384 221.011 46.264 219.155 44.024V47H212.003V11.384H219.491V23.912C221.379 21.832 223.971 20.792 227.267 20.792ZM225.971 41.24C227.891 41.24 229.459 40.6 230.675 39.32C231.923 38.008 232.547 36.264 232.547 34.088C232.547 31.912 231.923 30.184 230.675 28.904C229.459 27.592 227.891 26.936 225.971 26.936C224.051 26.936 222.467 27.592 221.219 28.904C220.003 30.184 219.395 31.912 219.395 34.088C219.395 36.264 220.003 38.008 221.219 39.32C222.467 40.6 224.051 41.24 225.971 41.24Z" fill="white"/>
<mask id="mask0" mask-type="alpha" maskUnits="userSpaceOnUse" x="1" y="11" width="240" height="37">
<path d="M54.768 13.4L43.776 47H35.424L28.032 24.248L20.4 47H12.096L1.056 13.4H9.12L16.704 37.016L24.624 13.4H31.824L39.504 37.208L47.328 13.4H54.768ZM68.9471 47.384C66.2271 47.384 63.7791 46.824 61.6031 45.704C59.4591 44.552 57.7791 42.968 56.5631 40.952C55.3471 38.936 54.7391 36.648 54.7391 34.088C54.7391 31.528 55.3471 29.24 56.5631 27.224C57.7791 25.208 59.4591 23.64 61.6031 22.52C63.7791 21.368 66.2271 20.792 68.9471 20.792C71.6671 20.792 74.0991 21.368 76.2431 22.52C78.3871 23.64 80.0671 25.208 81.2831 27.224C82.4991 29.24 83.1071 31.528 83.1071 34.088C83.1071 36.648 82.4991 38.936 81.2831 40.952C80.0671 42.968 78.3871 44.552 76.2431 45.704C74.0991 46.824 71.6671 47.384 68.9471 47.384ZM68.9471 41.24C70.8671 41.24 72.4351 40.6 73.6511 39.32C74.8991 38.008 75.5231 36.264 75.5231 34.088C75.5231 31.912 74.8991 30.184 73.6511 28.904C72.4351 27.592 70.8671 26.936 68.9471 26.936C67.0271 26.936 65.4431 27.592 64.1951 28.904C62.9471 30.184 62.3231 31.912 62.3231 34.088C62.3231 36.264 62.9471 38.008 64.1951 39.32C65.4431 40.6 67.0271 41.24 68.9471 41.24ZM95.2643 24.584C96.1603 23.336 97.3603 22.392 98.8643 21.752C100.4 21.112 102.16 20.792 104.144 20.792V27.704C103.312 27.64 102.752 27.608 102.464 27.608C100.32 27.608 98.6403 28.216 97.4243 29.432C96.2083 30.616 95.6003 32.408 95.6003 34.808V47H88.1123V21.176H95.2643V24.584ZM119.685 36.872L116.085 40.424V47H108.597V11.384H116.085V31.544L127.029 21.176H135.957L125.205 32.12L136.917 47H127.845L119.685 36.872ZM171.628 13.4V47H163.852V33.224H148.588V47H140.812V13.4H148.588V26.648H163.852V13.4H171.628ZM205.066 21.176V47H197.962V43.928C196.97 45.048 195.786 45.912 194.41 46.52C193.034 47.096 191.546 47.384 189.946 47.384C186.554 47.384 183.866 46.408 181.882 44.456C179.898 42.504 178.906 39.608 178.906 35.768V21.176H186.394V34.664C186.394 38.824 188.138 40.904 191.626 40.904C193.418 40.904 194.858 40.328 195.946 39.176C197.034 37.992 197.578 36.248 197.578 33.944V21.176H205.066ZM227.267 20.792C229.667 20.792 231.843 21.352 233.795 22.472C235.779 23.56 237.331 25.112 238.451 27.128C239.571 29.112 240.131 31.432 240.131 34.088C240.131 36.744 239.571 39.08 238.451 41.096C237.331 43.08 235.779 44.632 233.795 45.752C231.843 46.84 229.667 47.384 227.267 47.384C223.715 47.384 221.011 46.264 219.155 44.024V47H212.003V11.384H219.491V23.912C221.379 21.832 223.971 20.792 227.267 20.792ZM225.971 41.24C227.891 41.24 229.459 40.6 230.675 39.32C231.923 38.008 232.547 36.264 232.547 34.088C232.547 31.912 231.923 30.184 230.675 28.904C229.459 27.592 227.891 26.936 225.971 26.936C224.051 26.936 222.467 27.592 221.219 28.904C220.003 30.184 219.395 31.912 219.395 34.088C219.395 36.264 220.003 38.008 221.219 39.32C222.467 40.6 224.051 41.24 225.971 41.24Z" fill="white"/>
</mask>
<g mask="url(#mask0)">
<path d="M94.3578 34.4123C52.6183 41.6053 14.0612 23.0234 0 12.8333L242 6V47L180.575 34.4123C169.227 31.4152 136.097 27.2193 94.3578 34.4123Z" fill="#D9D9D9"/>
</g>
</svg>
